<svg width="32" height="32" viewBox="0 0 32 32" fill="none" xmlns="http://www.w3.org/2000/svg"><path fill-rule="evenodd" clip-rule="evenodd" d="M16 0C7.163 0 0 7.163 0 16c0 8.698 6.941 15.776 15.587 15.995a15.95 15.95 0 0 1-4.538-.777c.72.086.986-.383.986-.787 0-.177-.003-.488-.007-.904-.005-.48-.01-1.103-.015-1.82-4.451.968-5.39-2.146-5.39-2.146-.727-1.849-1.776-2.341-1.776-2.341-1.453-.994.11-.974.11-.974 1.605.113 2.45 1.65 2.45 1.65 1.428 2.447 3.745 1.74 4.657 1.33.145-1.035.559-1.74 1.016-2.14-3.553-.405-7.288-1.778-7.288-7.913 0-1.748.623-3.177 1.647-4.297-.165-.405-.714-2.032.156-4.237 0 0 1.344-.43 4.4 1.641a15.356 15.356 0 0 1 4.006-.54c1.359.008 2.728.185 4.006.54 3.054-2.071 4.395-1.64 4.395-1.64.873 2.204.324 3.831.159 4.236 1.026 1.12 1.645 2.549 1.645 4.297 0 6.15-3.741 7.504-7.305 7.9.574.495 1.086 1.471 1.086 2.966 0 1.43-.009 2.676-.015 3.502l-.005.89c0 .407.26.877.981.788-1.41.459-2.906.727-4.458.774C25.1 31.733 32 24.673 32 16c0-8.837-7.163-16-16-16z" fill="#c7c7c7"></path></svg>