<svg width="32" height="32" viewBox="0 0 32 32" fill="none" xmlns="http://www.w3.org/2000/svg"><path fill-rule="evenodd" clip-rule="evenodd" d="M16 0C7.163 0 0 7.163 0 16s7.163 16 16 16 16-7.163 16-16S24.837 0 16 0zm.5 11.554c-1.553.659-4.656 2.024-9.308 4.093-.756.307-1.152.607-1.188.9-.06.497.548.692 1.376.958.113.036.23.073.349.113.815.27 1.911.587 2.481.6.517.011 1.094-.207 1.73-.653 4.348-2.996 6.592-4.51 6.733-4.544.1-.023.237-.052.33.033.094.085.085.245.075.288-.06.263-2.448 2.53-3.684 3.702-.385.366-.658.625-.714.684a14.21 14.21 0 0 1-.375.379c-.757.745-1.325 1.304.031 2.217.652.438 1.174.8 1.694 1.162.568.396 1.135.79 1.868 1.28.187.126.365.255.54.382.66.481 1.255.914 1.989.845.426-.04.867-.45 1.09-1.671.53-2.886 1.568-9.14 1.809-11.716a2.928 2.928 0 0 0-.027-.642.691.691 0 0 0-.227-.441c-.191-.158-.487-.192-.619-.19-.6.011-1.521.338-5.953 2.22z" fill="#c7c7c7"></path></svg>