<svg width="32" height="32" viewBox="0 0 32 32" fill="none" xmlns="http://www.w3.org/2000/svg"><path fill-rule="evenodd" clip-rule="evenodd" d="M16 0C7.163 0 0 7.163 0 16s7.163 16 16 16 16-7.163 16-16S24.837 0 16 0zm7.842 13.042v-.5a7.163 7.163 0 0 0 1.925-2.05c-.7.325-1.45.525-2.25.625a4.04 4.04 0 0 0 1.725-2.175c-.775.45-1.6.775-2.5.95a3.902 3.902 0 0 0-2.85-1.225 3.916 3.916 0 0 0-3.925 3.925c0 .3.025.625.1.9a11.15 11.15 0 0 1-8.075-4.1 4.012 4.012 0 0 0-.525 1.975c0 1.375.7 2.575 1.75 3.275-.65-.025-1.25-.2-1.775-.5v.05c0 1.9 1.35 3.475 3.15 3.825-.325.1-.675.15-1.025.15-.275 0-.5-.025-.75-.075a3.88 3.88 0 0 0 3.65 2.725 7.933 7.933 0 0 1-4.875 1.675c-.3 0-.625-.025-.925-.05 1.75 1.1 3.8 1.75 6.025 1.75 7.2 0 11.15-5.975 11.15-11.15z" fill="#c7c7c7"></path></svg>